<svg version="1.1" id="Ebene_1" xmlns="http://www.w3.org/2000/svg" xmlns:xlink="http://www.w3.org/1999/xlink" x="0px" y="0px" viewBox="0 0 81.3 47.2" style="enable-background:new 0 0 81.3 47.2;" xml:space="preserve">
<style type="text/css">
	.st0{fill:#FFFFFF;}
</style>
<g id="Ebene_2_1_">
	<g id="Ebene_1-2">
		<path class="st0" d="M52.9,27.2l-15.6,3.5l2.5,4.3l12.6-2.8l0.8,4.1c-4.4,1-8.8,2-13.2,3c-1.8,0.3-3.6,0.3-5.5,0.1    c-2.2-0.3-4.4-0.5-6.7-0.7c-3.3-0.4-6.6-0.7-9.9-1.1c-2-0.2-4-0.4-5.9-0.8c-1.5-0.2-2.5-1.5-2.3-3c0.1-0.5,0.3-1.1,0.7-1.5    c0.4-0.4,0.8-0.7,1.3-0.9c3.9-1.8,7.7-3.6,11.6-5.4l4.8-2.3c-0.3-1.2-8.9-16.3-10.4-18.1l-7.1,1.5c-0.3,0.1-0.7,0.1-1,0.2    C8.6,7.7,7.5,7,7.3,5.9c0-0.1,0-0.1,0-0.2C7,4.6,7.7,3.5,8.8,3.2c0.5-0.1,1-0.2,1.4-0.3L18.9,1c0.8-0.2,1.7,0.7,2.2,1.6    c1.1,1.9,2.2,3.8,3.3,5.7c0.3,0.5,0.6,0.9,0.9,1.5c1.4-0.3,2.8-0.6,4.2-0.9l38.7-8.7C68.8,0.1,69.3,0,69.9,0c1.2,0.9,1,2.1,1,3.1    c-0.2,4.1-0.5,8.2-0.7,12.3c0,0.2-0.1,0.3-0.2,0.5h-3.2c0-0.8,0-1.8,0-2.5c-1.1,0.1-1.4,0.3-3.2,0.6c-0.1,0.8-0.1,1.8-0.2,2.6    l-1.2,0.4c0-0.8,0-1.7,0-2.6c-1.8,0.4-3.7,0.8-5.5,1.3c0.1,1.2,0.3,2.5,0.4,3.6c0.5-0.1,1-0.2,1.5-0.3l-2,2.3    c-0.6-0.8-0.2-0.5-0.4-0.5c-0.6,0.1-2.4,0.5-3,0.6S52,21.8,51.3,22l0.4,1.9l3-0.6L52.9,27.2z M30.3,27.3l-12.8,6.1    c3.1,0.4,14.1,1.6,17,1.8C33,32.3,31.7,30,30.3,27.3z M56.2,10.8l0.4,3.6c2-0.3,3.9-0.8,5.8-1.4c0.1-1.2,0.1-2.4,0-3.6L56.2,10.8z     M42.9,17.6l5.6-1.3l-0.9-3.5l-6.1,1.4L42.9,17.6z M40.2,14.4l-6.1,1.4c0.7,1.2,1.3,2.2,1.9,3.3c1.8-0.4,3.6-0.8,5.5-1.2    L40.2,14.4z M62.4,4.9l-6.7,1.5c0.2,1.3,0.3,2.1,0.4,3.2l6.3-1.4L62.4,4.9z M54.9,11.1l-6,1.4l0.8,3.5c1.9-0.3,3.8-0.7,5.6-1.2    L54.9,11.1z M38.5,10.3l-6.7,1.5l1.7,2.9c2.1-0.5,4.1-0.8,6.2-1.5L38.5,10.3z M54.8,9.9l-0.4-3.2l-6.6,1.5    c0.2,1.2,0.5,2.1,0.8,3.1L54.8,9.9z M46.5,8.5c-2.2,0.6-4.4,0.9-6.7,1.6L41,13c2.1-0.4,4.2-0.8,6.3-1.4L46.5,8.5z M55.6,16    L50,17.3l0.9,3.4l5.1-1.1L55.6,16z M43.2,18.8c0.5,1.3,1,2.3,1.4,3.3c1.6-0.4,3.3-0.8,5-1.1c-0.3-1.2-0.6-2.2-0.9-3.5L43.2,18.8z     M43.4,22.4L42,19l-5.4,1.3l1.9,3.2L43.4,22.4z M35.2,20.5l-3.4,0.8l1.8,3.2c1.2-0.1,2.3-0.4,3.4-0.8L35.2,20.5z M29.3,16.9    l1.9,3.4c1.1-0.3,2.1-0.5,3.4-0.9l-1.9-3.2L29.3,16.9z M66.9,12.1c0.1-1.3,0.1-2.3,0.2-3.6c-1.2,0.1-2.3,0.4-3.5,0.7    c0,1.2,0,2.4,0,3.7L66.9,12.1z M67.2,7.1V3.8l-3.5,0.8c-0.1,1.1-0.1,2.2,0,3.3L67.2,7.1z M28.6,15.8l3.4-0.8l-1.7-2.9L27,12.9    L28.6,15.8z M44.7,25.5c-0.3-0.8-0.6-1.4-0.9-2c-1.7,0.4-3,0.6-4.9,1.1l1.1,1.9L44.7,25.5z M45.9,25.2c2-0.5,3.3-0.7,4.4-1    c-0.2-0.5-0.3-1.3-0.5-1.9c-1.6,0.4-3.1,0.6-4.6,1C45.4,23.9,45.7,24.7,45.9,25.2z M38.9,26.8L37.8,25l-3.4,0.8l1,1.8L38.9,26.8z"/>
		<path class="st0" d="M67.5,45c-7.3,0.2-13.3-6.6-13.3-13.2c-0.3-7.4,5.5-13.6,12.9-13.9c0.2,0,0.4,0,0.6,0    c7.3-0.1,13.4,5.7,13.5,13c0,0.2,0,0.4,0,0.5c0.1,7.4-5.7,13.5-13.1,13.6C67.9,45,67.7,45,67.5,45z M67.7,41.6    c6,0.4,10.3-5.4,10.3-10c0-5.6-4.1-10.9-10.6-10.7c-5.5,0-10,4.4-10.1,9.9C57.2,37.4,62.1,41.9,67.7,41.6L67.7,41.6z"/>
		<path class="st0" d="M22.3,39.1c1,0.1,2.9,0.3,3.5,0.4c-2,4.6-7.1,8.4-14.1,7.5c-6-0.8-10.8-5.6-11.5-11.7    c-0.8-6.7,2.6-12.6,9.5-14.9c4.8-1.6,10.9-0.1,13.7,3.7l-2.8,1.3c-2.8-2.3-6.5-3.1-10-2.1c-2.3,0.7-4.3,2.2-5.5,4.4    c-2.8,4.5-1.8,10.5,2.4,13.8c2.3,1.7,5.1,2.3,7.9,1.9C18.3,43.2,20.5,41.5,22.3,39.1z"/>
		<path class="st0" d="M24,32.8l-0.2-1c1-0.3,1.9-0.7,3-1.2c0.4,0.7,0.5,1.6,0.4,2.4C26,32.9,25.1,32.8,24,32.8z"/>
		<path class="st0" d="M59.4,33.7c-0.2-0.9-0.1-0.5-0.4-1.4c-0.2-0.6-0.1-1.3,0.3-1.7c2.6-0.6,5.3-1.2,8-1.8    c1.7-0.3,2.3-0.3,2.8,1.6c0.4,2-0.6,2.3-1.9,2.6c-2.7,0.6-5.4,1.2-8.1,1.8C60,34.7,59.6,34.6,59.4,33.7z"/>
	</g>
</g>
</svg>